<svg width="90" height="90" viewBox="0 0 90 90" xmlns="http://www.w3.org/2000/svg">

  <!-- Document -->
  <g transform="translate(20 15)">
    
    <!-- Paper -->
    <rect x="0" y="0" width="40" height="55" rx="6" fill="white"></rect>

    <!-- Fold Corner -->
    <polygon points="28,0 40,0 40,12" fill="#E6EAF2"></polygon>

    <!-- Text Lines -->
    <rect x="8" y="12" width="24" height="4" rx="2" fill="#D3D9E6"></rect>
    <rect x="8" y="20" width="20" height="4" rx="2" fill="#D3D9E6"></rect>
    <rect x="8" y="28" width="22" height="4" rx="2" fill="#D3D9E6"></rect>

  </g>

  <!-- Small Gear -->
  <g transform="translate(55 55) scale(0.6)">

    <!-- Gear Body -->
    <path fill="#2F6FE4" d="
      M0 -14
      L3 -14 L5 -10
      L10 -8 L14 -10
      L16 -7 L14 -3
      L16 0 L14 3
      L16 7 L14 10
      L10 8 L5 10
      L3 14 L-3 14
      L-5 10 L-10 8
      L-14 10 L-16 7
      L-14 3 L-16 0
      L-14 -3 L-16 -7
      L-14 -10 L-10 -8
      L-5 -10 L-3 -14 Z"></path>

    <!-- Inner Circle -->
    <circle cx="0" cy="0" r="5" fill="white"></circle>

  </g>

</svg>