<svg width="80" height="80" viewBox="0 0 80 80" xmlns="http://www.w3.org/2000/svg">

  <g transform="translate(40 40)">

    <!-- White Gear -->
    <path fill="white" d="
      M0 -18
      L4 -18 L6 -13
      L13 -10 L18 -12
      L20 -8 L16 -3
      L20 0 L16 3
      L20 8 L18 12
      L13 10 L6 13
      L4 18 L-4 18
      L-6 13 L-13 10
      L-18 12 L-20 8
      L-16 3 L-20 0
      L-16 -3 L-20 -8
      L-18 -12 L-13 -10
      L-6 -13 L-4 -18 Z"></path>

    <!-- Blue Center -->
    <circle cx="0" cy="0" r="7" fill="#2F6FE4"></circle>

    <!-- White Tick -->
    <path d="M-3 0 L-1 3 L4 -3" fill="none" stroke="white" stroke-width="2.5" stroke-linecap="round" stroke-linejoin="round"></path>

  </g>

</svg>